<svg width="69" height="60" viewBox="0 0 69 60" fill="none" xmlns="http://www.w3.org/2000/svg">
<path d="M53.5704 48.559C49.8795 53.2465 44.8749 56.727 39.196 58.5558C33.5171 60.3846 27.4219 60.4786 21.6892 58.8259C15.9566 57.1731 10.847 53.8486 7.01332 49.2772C3.17964 44.7059 0.796047 39.0953 0.167143 33.1624C-0.461761 27.2295 0.692589 21.2438 3.48267 15.9703C6.27276 10.6968 10.5719 6.37498 15.8306 3.5571C21.0893 0.739214 27.0688 -0.446713 33.0049 0.150867C38.941 0.748447 44.5641 3.10239 49.1557 6.91189L42.4595 14.9827C39.473 12.5048 35.8155 10.9738 31.9545 10.5851C28.0934 10.1964 24.2042 10.9677 20.7837 12.8006C17.3632 14.6334 14.567 17.4445 12.7522 20.8746C10.9374 24.3047 10.1866 28.198 10.5957 32.0569C11.0047 35.9159 12.5551 39.5652 15.0486 42.5386C17.5422 45.512 20.8657 47.6744 24.5944 48.7494C28.3231 49.8244 32.2876 49.7632 35.9814 48.5737C39.6752 47.3842 42.9304 45.1203 45.331 42.0714L53.5704 48.559Z" fill="black"/>
<path d="M34.8048 18.2533L34.2608 18.2619L30.4072 23.6689C29.769 24.5643 29.9856 25.8085 30.8887 26.4356L41.4575 33.774C42.6331 34.5902 44.2593 33.9231 44.5231 32.5165L45.4475 27.586C45.5862 26.8462 45.2921 26.092 44.6892 25.6414L34.8048 18.2533Z" fill="black"/>
<path d="M25.1211 42.3633H34.8269V18.2693H25.1211L25.1211 42.3633Z" fill="black"/>
<path d="M55.9512 44.6475L59.9275 44.6475L65.0861 44.6473V6.96594H55.9512L55.9512 44.6475Z" fill="black"/>
<path d="M36.7216 29.9673L39.9556 32.7145L43.9609 35.5127L62.2307 13.6455L65.0852 6.96575L55.9501 6.96559L36.7216 29.9673Z" fill="black"/>
</svg>
