<svg width="199" height="53" viewBox="0 0 199 53" fill="none" xmlns="http://www.w3.org/2000/svg">
<path d="M46.9149 42.5261C43.6826 46.6312 39.2997 49.6793 34.3263 51.2809C29.353 52.8825 24.015 52.9648 18.9946 51.5174C13.9742 50.07 9.49937 47.1585 6.14199 43.1551C2.78461 39.1517 0.697147 34.2381 0.146377 29.0423C-0.404392 23.8465 0.606542 18.6045 3.04999 13.9862C5.49344 9.36786 9.25842 5.58296 13.8638 3.11516C18.4692 0.647375 23.7058 -0.391214 28.9044 0.132123C34.103 0.655461 39.0275 2.71696 43.0486 6.05316L37.1844 13.1212C34.5689 10.9513 31.3658 9.61038 27.9845 9.26999C24.6031 8.92959 21.1971 9.60512 18.2016 11.2103C15.2061 12.8154 12.7572 15.2772 11.1679 18.2812C9.57856 21.2851 8.92102 24.6947 9.27926 28.0742C9.6375 31.4537 10.9953 34.6497 13.179 37.2537C15.3628 39.8576 18.2734 41.7513 21.5388 42.6928C24.8043 43.6343 28.2763 43.5807 31.5111 42.539C34.746 41.4972 37.5967 39.5146 39.6991 36.8445L46.9149 42.5261Z" fill="#D02525"/>
<path d="M30.4812 15.9858L30.0048 15.9933L26.6299 20.7285C26.071 21.5126 26.2606 22.6023 27.0516 23.1515L36.3073 29.5781C37.3368 30.293 38.7611 29.7087 38.992 28.4769L39.8016 24.1589C39.923 23.5111 39.6655 22.8505 39.1375 22.4559L30.4812 15.9858Z" fill="#D02525"/>
<path d="M22 37.1006H30.5V16H22L22 37.1006Z" fill="#D02525"/>
<path d="M49 39.1006L52.4824 39.1006L57 39.1004L57 6.10059H49L49 39.1006Z" fill="#D02525"/>
<path d="M32.1602 26.2445L34.9925 28.6503L38.5001 31.1009L54.5001 11.9505L57 6.10058L48.9999 6.10045L32.1602 26.2445Z" fill="#D02525"/>
<path d="M75.32 39.28C73.2667 39.28 71.4133 38.8267 69.76 37.92C68.1333 36.9867 66.8533 35.7067 65.92 34.08C64.9867 32.4533 64.52 30.5333 64.52 28.32C64.52 26.1067 64.9867 24.1867 65.92 22.56C66.8533 20.9333 68.1333 19.6667 69.76 18.76C71.4133 17.8533 73.2667 17.4 75.32 17.4C77.1067 17.4 78.7067 17.8 80.12 18.6C81.5333 19.3733 82.6533 20.56 83.48 22.16C84.3067 23.76 84.72 25.8133 84.72 28.32C84.72 30.8 84.32 32.8533 83.52 34.48C82.72 36.08 81.6133 37.28 80.2 38.08C78.7867 38.88 77.16 39.28 75.32 39.28ZM75.92 35C77.12 35 78.1867 34.7333 79.12 34.2C80.08 33.6667 80.84 32.8933 81.4 31.88C81.9867 30.8667 82.28 29.68 82.28 28.32C82.28 26.9333 81.9867 25.7467 81.4 24.76C80.84 23.7467 80.08 22.9733 79.12 22.44C78.1867 21.9067 77.12 21.64 75.92 21.64C74.72 21.64 73.64 21.9067 72.68 22.44C71.7467 22.9733 70.9867 23.7467 70.4 24.76C69.84 25.7467 69.56 26.9333 69.56 28.32C69.56 29.68 69.84 30.8667 70.4 31.88C70.9867 32.8933 71.7467 33.6667 72.68 34.2C73.64 34.7333 74.72 35 75.92 35ZM82.4 39V33.96L82.6 28.28L82.2 22.6V9.32H87.16V39H82.4ZM92.5409 39V17.64H97.5409V39H92.5409ZM95.0609 14.12C94.1276 14.12 93.3543 13.8267 92.7409 13.24C92.1543 12.6533 91.8609 11.9467 91.8609 11.12C91.8609 10.2667 92.1543 9.56 92.7409 9C93.3543 8.41333 94.1276 8.12 95.0609 8.12C95.9943 8.12 96.7543 8.4 97.3409 8.96C97.9543 9.49333 98.2609 10.1733 98.2609 11C98.2609 11.88 97.9676 12.6267 97.3809 13.24C96.7943 13.8267 96.0209 14.12 95.0609 14.12ZM112.583 47.04C110.61 47.04 108.677 46.7733 106.783 46.24C104.917 45.7333 103.383 44.9867 102.183 44L104.423 40.24C105.357 41.0133 106.53 41.6267 107.943 42.08C109.383 42.56 110.837 42.8 112.303 42.8C114.65 42.8 116.37 42.2533 117.463 41.16C118.557 40.0933 119.103 38.48 119.103 36.32V32.52L119.503 27.68L119.343 22.84V17.64H124.103V35.76C124.103 39.6267 123.117 42.4667 121.143 44.28C119.17 46.12 116.317 47.04 112.583 47.04ZM111.943 38.04C109.917 38.04 108.077 37.6133 106.423 36.76C104.797 35.88 103.503 34.6667 102.543 33.12C101.61 31.5733 101.143 29.76 101.143 27.68C101.143 25.6267 101.61 23.8267 102.543 22.28C103.503 20.7333 104.797 19.5333 106.423 18.68C108.077 17.8267 109.917 17.4 111.943 17.4C113.757 17.4 115.383 17.76 116.823 18.48C118.263 19.2 119.41 20.32 120.263 21.84C121.143 23.36 121.583 25.3067 121.583 27.68C121.583 30.0533 121.143 32.0133 120.263 33.56C119.41 35.08 118.263 36.2133 116.823 36.96C115.383 37.68 113.757 38.04 111.943 38.04ZM112.703 33.8C113.957 33.8 115.077 33.5467 116.063 33.04C117.05 32.5067 117.81 31.7867 118.343 30.88C118.903 29.9467 119.183 28.88 119.183 27.68C119.183 26.48 118.903 25.4267 118.343 24.52C117.81 23.5867 117.05 22.88 116.063 22.4C115.077 21.8933 113.957 21.64 112.703 21.64C111.45 21.64 110.317 21.8933 109.303 22.4C108.317 22.88 107.543 23.5867 106.983 24.52C106.45 25.4267 106.183 26.48 106.183 27.68C106.183 28.88 106.45 29.9467 106.983 30.88C107.543 31.7867 108.317 32.5067 109.303 33.04C110.317 33.5467 111.45 33.8 112.703 33.8ZM129.477 39V17.64H134.477V39H129.477ZM131.997 14.12C131.064 14.12 130.29 13.8267 129.677 13.24C129.09 12.6533 128.797 11.9467 128.797 11.12C128.797 10.2667 129.09 9.56 129.677 9C130.29 8.41333 131.064 8.12 131.997 8.12C132.93 8.12 133.69 8.4 134.277 8.96C134.89 9.49333 135.197 10.1733 135.197 11C135.197 11.88 134.904 12.6267 134.317 13.24C133.73 13.8267 132.957 14.12 131.997 14.12ZM147.879 39.28C145.533 39.28 143.719 38.68 142.439 37.48C141.159 36.2533 140.519 34.4533 140.519 32.08V12.92H145.519V31.96C145.519 32.9733 145.773 33.76 146.279 34.32C146.813 34.88 147.546 35.16 148.479 35.16C149.599 35.16 150.533 34.8667 151.279 34.28L152.679 37.84C152.093 38.32 151.373 38.68 150.519 38.92C149.666 39.16 148.786 39.28 147.879 39.28ZM136.999 21.8V17.8H151.239V21.8H136.999ZM168.753 39V34.68L168.473 33.76V26.2C168.473 24.7333 168.033 23.6 167.153 22.8C166.273 21.9733 164.939 21.56 163.153 21.56C161.953 21.56 160.766 21.7467 159.593 22.12C158.446 22.4933 157.473 23.0133 156.673 23.68L154.713 20.04C155.859 19.16 157.219 18.5067 158.793 18.08C160.393 17.6267 162.046 17.4 163.753 17.4C166.846 17.4 169.233 18.1467 170.913 19.64C172.619 21.1067 173.473 23.3867 173.473 26.48V39H168.753ZM162.033 39.28C160.433 39.28 159.033 39.0133 157.833 38.48C156.633 37.92 155.699 37.16 155.033 36.2C154.393 35.2133 154.073 34.1067 154.073 32.88C154.073 31.68 154.353 30.6 154.913 29.64C155.499 28.68 156.446 27.92 157.753 27.36C159.059 26.8 160.793 26.52 162.953 26.52H169.153V29.84H163.313C161.606 29.84 160.459 30.12 159.873 30.68C159.286 31.2133 158.993 31.88 158.993 32.68C158.993 33.5867 159.353 34.3067 160.073 34.84C160.793 35.3733 161.793 35.64 163.073 35.64C164.299 35.64 165.393 35.36 166.353 34.8C167.339 34.24 168.046 33.4133 168.473 32.32L169.313 35.32C168.833 36.5733 167.966 37.5467 166.713 38.24C165.486 38.9333 163.926 39.28 162.033 39.28ZM178.689 39V9.32H183.689V39H178.689Z" fill="black"/>
</svg>
