<svg width="186" height="59" viewBox="0 0 186 59" fill="none" xmlns="http://www.w3.org/2000/svg">
<path fill-rule="evenodd" clip-rule="evenodd" d="M39.301 0C39.6398 0 39.9786 0 40.3174 0C53.2628 6.52918 66.2498 12.9663 79.2789 19.3114C72.8438 22.7547 66.2939 26.0298 59.6287 29.1365C46.4482 22.6026 33.2352 16.1654 19.9896 9.82509C26.3844 6.45831 32.8216 3.18326 39.301 0Z" fill="black"/>
<path fill-rule="evenodd" clip-rule="evenodd" d="M19.9896 9.82509C33.2352 16.1654 46.4482 22.6026 59.6287 29.1365C66.2939 26.0298 72.8438 22.7547 79.2789 19.3114C79.7295 24.3037 79.729 29.3291 79.2784 34.3877C66.2181 40.8614 53.1179 47.242 39.978 53.5297C26.562 47.2735 13.2361 40.8364 0 34.2183C0 32.5243 0 30.8303 0 29.1364C0.112932 29.1364 0.225864 29.1364 0.338796 29.1364C13.4656 35.6152 26.6222 42.0523 39.8086 48.4478C43.0065 46.8771 46.225 45.3525 49.4643 43.874C36.3271 37.1923 23.114 30.6988 9.8251 24.3932C9.71651 22.6333 9.82943 20.9393 10.1639 19.3113C23.0368 25.8604 36.0239 32.2411 49.1255 38.4533C49.5771 38.6792 50.0291 38.6792 50.4807 38.4533C53.4275 36.9798 56.3635 35.5118 59.2894 34.0489C46.1268 27.637 33.0268 21.1434 19.989 14.5681C19.989 12.9871 19.9896 11.4062 19.9896 9.82509Z" fill="black"/>
<path fill-rule="evenodd" clip-rule="evenodd" d="M157.879 13.213C158.783 13.213 159.686 13.213 160.589 13.213C160.589 15.5846 160.589 17.9562 160.589 20.3277C158.277 20.1436 156.131 20.6518 154.152 21.8523C153.435 22.4388 152.927 23.1728 152.628 24.0545C152.135 29.4513 151.966 34.8719 152.12 40.3167C149.522 40.3167 146.925 40.3167 144.327 40.3167C144.327 31.3951 144.327 22.4734 144.327 13.5518C146.925 13.5518 149.522 13.5518 152.12 13.5518C152.063 14.9117 152.12 16.2669 152.289 17.6174C153.617 15.4398 155.48 13.9717 157.879 13.213Z" fill="black"/>
<path fill-rule="evenodd" clip-rule="evenodd" d="M102.316 13.5518C105.047 13.4429 107.758 13.6123 110.447 14.06C113.853 14.9814 115.83 17.1836 116.376 20.6665C116.546 27.2156 116.602 33.7657 116.546 40.3167C114.174 40.3167 111.803 40.3167 109.431 40.3167C109.487 39.4064 109.43 38.5028 109.262 37.6064C107.289 39.9417 104.748 41.0709 101.639 40.9943C94.4216 40.562 91.6547 36.8353 93.3381 29.814C93.8124 28.6613 94.5466 27.7014 95.5403 26.9343C99.8142 24.8957 104.331 24.0487 109.092 24.3933C109.167 19.4447 106.908 17.9201 102.316 19.8195C101.543 20.6318 101.091 21.5917 100.961 22.6993C98.5895 22.6993 96.2179 22.6993 93.8463 22.6993C93.9697 18.6806 95.8896 15.9138 99.6059 14.3988C100.558 14.1338 101.461 13.8514 102.316 13.5518ZM104.01 29.1364C105.704 29.1364 107.398 29.1364 109.092 29.1364C109.5 33.134 107.693 35.2798 103.671 35.5736C100.787 35.4567 99.7143 33.9885 100.453 31.1692C101.399 29.9924 102.585 29.3149 104.01 29.1364Z" fill="black"/>
<path fill-rule="evenodd" clip-rule="evenodd" d="M128.065 13.5525C131.877 13.1163 135.491 13.7374 138.907 15.4159C141.849 17.5163 143.317 20.3961 143.311 24.0552C140.939 24.0552 138.568 24.0552 136.196 24.0552C135.353 20.2409 132.981 18.8292 129.082 19.8203C127.163 20.6105 125.977 22.0221 125.524 24.0552C124.818 26.684 124.931 29.2815 125.863 31.8475C127.892 35.0796 130.659 35.9266 134.163 34.3885C135.738 33.4309 136.528 32.0193 136.535 30.1535C138.917 30.0416 141.289 30.1546 143.65 30.4923C142.479 37.5329 138.3 41.034 131.114 40.995C120.528 40.0576 116.067 34.298 117.732 23.7164C119.126 18.1995 122.571 14.8115 128.065 13.5525Z" fill="black"/>
<path fill-rule="evenodd" clip-rule="evenodd" d="M186 25.0709C186 26.4261 186 27.7813 186 29.1364C179.789 29.1364 173.577 29.1364 167.366 29.1364C167.385 32.5987 169.079 34.688 172.448 35.4042C174.631 35.6925 176.494 35.0715 178.038 33.5408C178.38 33.0242 178.55 32.4595 178.546 31.8468C181.031 31.8468 183.516 31.8468 186 31.8468C186 31.9597 186 32.0727 186 32.1856C184.945 36.6845 182.122 39.4514 177.53 40.4861C171.792 41.8023 166.766 40.5034 162.454 36.59C159.456 31.9722 158.778 27.0032 160.421 21.6829C163.672 15.2293 168.923 12.5754 176.175 13.7212C182.175 15.171 185.45 18.9542 186 25.0709ZM172.787 18.6338C176.402 18.8602 178.321 20.7801 178.546 24.3933C174.82 24.3933 171.093 24.3933 167.366 24.3933C167.806 21.1314 169.613 19.2116 172.787 18.6338Z" fill="black"/>
<path fill-rule="evenodd" clip-rule="evenodd" d="M19.989 14.5681C33.0268 21.1434 46.1268 27.637 59.2894 34.0489C56.3635 35.5118 53.4275 36.9798 50.4807 38.4533C50.0291 38.6792 49.5771 38.6792 49.1255 38.4533C36.0239 32.2411 23.0368 25.8604 10.1639 19.3113C13.396 17.6387 16.6711 16.0577 19.989 14.5681Z" fill="black"/>
<path fill-rule="evenodd" clip-rule="evenodd" d="M9.8251 24.3932C23.114 30.6988 36.3271 37.1923 49.4643 43.874C46.225 45.3525 43.0065 46.8771 39.8086 48.4478C26.6222 42.0523 13.4656 35.6152 0.338796 29.1364C3.39328 27.3833 6.55537 25.8022 9.8251 24.3932Z" fill="black"/>
<path fill-rule="evenodd" clip-rule="evenodd" d="M119.936 44.7215C120.5 44.7215 121.065 44.7215 121.63 44.7215C121.63 45.3991 121.63 46.0767 121.63 46.7543C121.065 46.7543 120.5 46.7543 119.936 46.7543C119.936 46.0767 119.936 45.3991 119.936 44.7215Z" fill="black"/>
<path fill-rule="evenodd" clip-rule="evenodd" d="M129.758 58.2734C128.968 58.2734 128.177 58.2734 127.387 58.2734C124.762 56.7938 123.802 54.5351 124.507 51.4974C125.916 47.9479 128.288 47.1571 131.622 49.1259C131.791 47.6619 131.847 46.1939 131.791 44.7215C132.243 44.7215 132.695 44.7215 133.146 44.7215C133.146 49.1259 133.146 53.5302 133.146 57.9346C132.695 57.9346 132.243 57.9346 131.791 57.9346C131.842 57.5782 131.785 57.2394 131.622 56.9182C131.113 57.5853 130.492 58.0369 129.758 58.2734ZM127.726 49.4647C131.075 49.4901 132.374 51.1841 131.622 54.5466C130.992 56.4703 129.694 57.2045 127.726 56.7488C125.03 54.2783 125.03 51.8505 127.726 49.4647Z" fill="black"/>
<path fill-rule="evenodd" clip-rule="evenodd" d="M169.059 44.7217C169.51 44.7217 169.962 44.7217 170.414 44.7217C170.414 45.3993 170.414 46.0769 170.414 46.7545C169.962 46.7545 169.51 46.7545 169.059 46.7545C169.059 46.0769 169.059 45.3993 169.059 44.7217Z" fill="black"/>
<path fill-rule="evenodd" clip-rule="evenodd" d="M185.996 44.7214C185.996 49.1257 185.996 53.5301 185.996 57.9344C185.431 57.9344 184.866 57.9344 184.302 57.9344C184.302 53.5301 184.302 49.1257 184.302 44.7214C184.866 44.7214 185.431 44.7214 185.996 44.7214Z" fill="black"/>
<path fill-rule="evenodd" clip-rule="evenodd" d="M96.2178 48.1096C96.6694 48.1096 97.1214 48.1096 97.573 48.1096C97.573 48.6743 97.573 49.2388 97.573 49.8036C96.0864 49.6148 95.0134 50.1796 94.3544 51.4975C94.185 53.6404 94.1288 55.786 94.185 57.9347C93.6202 57.9347 93.0558 57.9347 92.491 57.9347C92.491 54.7727 92.491 51.6103 92.491 48.4484C92.9427 48.4484 93.3946 48.4484 93.8462 48.4484C93.793 48.9135 93.8496 49.3655 94.0156 49.8036C94.6272 49.0155 95.3613 48.4511 96.2178 48.1096Z" fill="black"/>
<path fill-rule="evenodd" clip-rule="evenodd" d="M104.687 58.2728C103.784 58.2728 102.88 58.2728 101.977 58.2728C99.1557 56.7727 98.1959 54.4011 99.0971 51.1581C99.633 49.0803 100.988 48.0639 103.163 48.109C106.26 48.5253 107.671 50.3321 107.398 53.5297C105.026 53.5297 102.654 53.5297 100.283 53.5297C100.717 56.5684 102.298 57.4716 105.026 56.2401C105.407 55.761 105.746 55.2528 106.042 54.7155C106.48 54.5495 106.932 54.4929 107.398 54.5461C107.231 56.3556 106.327 57.598 104.687 58.2728ZM101.977 49.4641C104.07 49.1284 105.425 49.9754 106.042 52.0051C104.122 52.2311 102.203 52.2311 100.283 52.0051C100.647 51.0209 101.212 50.1739 101.977 49.4641Z" fill="black"/>
<path fill-rule="evenodd" clip-rule="evenodd" d="M114.851 58.2729C113.948 58.2729 113.044 58.2729 112.141 58.2729C110.355 57.7223 109.451 56.48 109.431 54.5461C109.995 54.5461 110.56 54.5461 111.124 54.5461C111.363 56.5338 112.492 57.2677 114.512 56.7483C115.927 56.2374 116.153 55.447 115.19 54.3767C114.124 53.8329 112.994 53.4941 111.802 53.3603C109.405 52.0814 109.179 50.5002 111.124 48.6172C113.194 47.7329 115.057 48.0155 116.715 49.4642C116.832 50.0462 117.001 50.611 117.223 51.1581C116.699 51.4807 116.135 51.5935 115.529 51.4969C115.17 49.6014 114.041 48.98 112.141 49.6336C111.429 50.2207 111.316 50.8983 111.802 51.6663C113.251 52.1698 114.719 52.6214 116.206 53.0215C117.841 54.3709 117.954 55.8393 116.545 57.4259C115.93 57.6823 115.366 57.9646 114.851 58.2729Z" fill="black"/>
<path fill-rule="evenodd" clip-rule="evenodd" d="M141.615 58.2726C140.712 58.2726 139.809 58.2726 138.905 58.2726C136.196 56.4905 135.349 54.0062 136.364 50.8191C137.704 48.1074 139.793 47.3732 142.632 48.6169C144.134 49.9037 144.812 51.5411 144.665 53.5295C142.293 53.5295 139.922 53.5295 137.55 53.5295C137.832 56.3581 139.301 57.3182 141.954 56.4092C142.668 55.981 143.007 55.36 142.971 54.5459C143.576 54.4493 144.141 54.5621 144.665 54.8847C144.259 56.622 143.243 57.7512 141.615 58.2726ZM139.244 49.4639C141.426 49.1387 142.668 50.0422 142.971 52.1743C141.15 52.2854 139.343 52.1726 137.55 51.8355C137.992 50.9444 138.556 50.154 139.244 49.4639Z" fill="black"/>
<path fill-rule="evenodd" clip-rule="evenodd" d="M150.085 48.1096C151.869 47.7949 153.393 48.2465 154.659 49.4648C155.135 52.2595 155.305 55.0831 155.167 57.9347C154.602 57.9347 154.038 57.9347 153.473 57.9347C153.529 55.4476 153.473 52.9632 153.304 50.4812C151.564 48.9712 150.096 49.1971 148.899 51.1588C148.73 53.4145 148.674 55.6732 148.73 57.9347C148.165 57.9347 147.601 57.9347 147.036 57.9347C147.036 54.7727 147.036 51.6104 147.036 48.4484C147.804 48.3268 148.425 48.5528 148.899 49.126C149.287 48.7411 149.683 48.4023 150.085 48.1096Z" fill="black"/>
<path fill-rule="evenodd" clip-rule="evenodd" d="M163.64 58.2729C162.736 58.2729 161.833 58.2729 160.929 58.2729C158.125 56.7208 157.165 54.3493 158.049 51.1581C159.136 48.441 161.113 47.4812 163.978 48.2784C165.364 48.7279 166.155 49.6878 166.35 51.1581C165.785 51.6097 165.221 51.6097 164.656 51.1581C163.763 49.3872 162.407 48.9919 160.59 49.9723C158.635 52.4662 158.861 54.725 161.268 56.7483C163.192 57.0894 164.435 56.299 164.995 54.3767C165.433 54.2107 165.885 54.1541 166.35 54.2073C166.283 56.155 165.38 57.5102 163.64 58.2729Z" fill="black"/>
<path fill-rule="evenodd" clip-rule="evenodd" d="M177.867 58.2731C176.964 58.2731 176.06 58.2731 175.157 58.2731C173.123 57.2455 172.615 55.6643 173.632 53.5299C174.029 53.058 174.537 52.7754 175.157 52.6829C176.392 52.4207 177.635 52.1947 178.884 52.0053C180.028 50.3103 179.52 49.4634 177.359 49.4644C175.912 49.3868 175.179 50.0644 175.157 51.4972C174.592 51.4972 174.028 51.4972 173.463 51.4972C173.426 49.9655 174.104 48.8925 175.496 48.2786C177.005 47.9848 178.473 48.0977 179.9 48.6174C180.182 48.8996 180.465 49.1822 180.747 49.4644C180.86 51.61 180.973 53.7559 181.086 55.9015C181.326 56.4006 181.721 56.6265 182.272 56.5791C182.272 57.0307 182.272 57.4827 182.272 57.9343C181.585 57.9892 180.907 57.9326 180.239 57.7649C180.027 57.5108 179.857 57.2282 179.731 56.9179C179.048 57.3234 178.427 57.7751 177.867 58.2731ZM178.545 53.1911C178.884 53.1911 179.222 53.1911 179.561 53.1911C179.902 55.4479 178.942 56.6902 176.681 56.9179C175.054 56.8728 174.489 56.0821 174.987 54.5463C176.1 53.8294 177.286 53.3778 178.545 53.1911Z" fill="black"/>
<path fill-rule="evenodd" clip-rule="evenodd" d="M119.936 48.4484C120.5 48.4484 121.065 48.4484 121.63 48.4484C121.63 51.6104 121.63 54.7728 121.63 57.9347C121.065 57.9347 120.5 57.9347 119.936 57.9347C119.936 54.7728 119.936 51.6104 119.936 48.4484Z" fill="black"/>
<path fill-rule="evenodd" clip-rule="evenodd" d="M169.059 48.448C169.51 48.448 169.962 48.448 170.414 48.448C170.414 51.61 170.414 54.7723 170.414 57.9343C169.962 57.9343 169.51 57.9343 169.059 57.9343C169.059 54.7723 169.059 51.61 169.059 48.448Z" fill="black"/>
</svg>
