<svg width="120" height="78" viewBox="0 0 120 78" fill="none" xmlns="http://www.w3.org/2000/svg">
<mask id="mask0_687_2720" style="mask-type:luminance" maskUnits="userSpaceOnUse" x="0" y="1" width="120" height="76">
<path d="M119.044 1.18677H0.236328V76.792H119.044V1.18677Z" fill="white"/>
</mask>
<g mask="url(#mask0_687_2720)">
<path d="M40.4243 1.77368V1.78552C39.3475 1.7936 38.6897 2.29138 38.0267 3.76323L31.1348 21.195L31.3516 22.1018C31.3516 22.1018 36.9169 44.8731 37.2253 46.1161C37.5421 47.4373 38.1418 48.0201 39.6084 48.0384H39.7544C39.7618 48.0384 39.7692 48.0357 39.7714 48.0357C40.9867 47.8259 41.4005 47.0611 41.9831 45.5651C42.3367 44.661 46.3224 34.5846 50.1457 24.9368V24.9238C47.7397 15.3098 45.4453 6.11172 45.2595 5.37176C44.7439 3.30903 42.5791 1.77368 40.4489 1.77368H40.4243Z" fill="black" fill-opacity="0.75"/>
<mask id="mask1_687_2720" style="mask-type:luminance" maskUnits="userSpaceOnUse" x="31" y="1" width="20" height="48">
<path d="M40.4243 1.77271V1.78455C39.3475 1.79262 38.6897 2.2904 38.0267 3.76225L31.1348 21.1939L31.3516 22.1008C31.3516 22.1008 36.9169 44.872 37.2251 46.1152C37.5421 47.4364 38.1418 48.0192 39.6084 48.0374H39.7543C39.7618 48.0374 39.7692 48.0348 39.7714 48.0348C40.9867 47.8248 41.4005 47.0602 41.9831 45.5641C42.3367 44.66 46.3224 34.5837 50.1457 24.9357V24.9229C47.7397 15.3088 45.4453 6.11073 45.2595 5.37078C44.7439 3.30804 42.5791 1.77271 40.4489 1.77271H40.4243Z" fill="white"/>
</mask>
<g mask="url(#mask1_687_2720)">
<path d="M50.374 48.0351L50.1466 1.67725L30.9023 1.77519L31.1357 48.1368L50.374 48.0351Z" fill="black" fill-opacity="0.75"/>
</g>
<path d="M79.6393 1.58765C78.5844 1.61132 77.9389 2.11018 77.279 3.56372L70.2832 21.2408L70.4452 21.906C70.4452 21.906 76.0072 44.6762 76.3108 45.9167C76.6394 47.2625 77.2603 47.8416 78.784 47.8395H78.8262C78.8836 47.8395 78.9529 47.8352 79.0391 47.8254H78.9933C79.7879 47.6076 80.7775 46.2826 81.3755 44.7768C81.727 43.8841 85.5503 34.2055 89.257 24.8196C86.8534 15.1694 84.5373 5.92082 84.3552 5.16795C83.8466 3.1429 81.7456 1.64469 79.6537 1.58818L79.6393 1.58765Z" fill="black" fill-opacity="0.75"/>
<mask id="mask2_687_2720" style="mask-type:luminance" maskUnits="userSpaceOnUse" x="70" y="1" width="20" height="47">
<path d="M79.6393 1.58765C78.5844 1.61132 77.9389 2.11018 77.279 3.56372L70.2832 21.2408L70.4452 21.906C70.4452 21.906 76.0072 44.6762 76.3108 45.9167C76.6394 47.2625 77.2603 47.8416 78.784 47.8395H78.8262C78.8836 47.8395 78.9529 47.8352 79.0391 47.8254H78.9933C79.7879 47.6076 80.7775 46.2826 81.3755 44.7768C81.727 43.8841 85.5503 34.2055 89.257 24.8196C86.8534 15.1694 84.5373 5.92082 84.3552 5.16795C83.8466 3.1429 81.7456 1.64469 79.6537 1.58818L79.6393 1.58765Z" fill="white"/>
</mask>
<g mask="url(#mask2_687_2720)">
<path d="M89.4881 47.8401L89.2543 1.48975L70.0527 1.58822L70.2822 47.9402L89.4881 47.8401Z" fill="black" fill-opacity="0.75"/>
</g>
<path d="M104.328 1.46251C100.744 1.47919 97.5836 3.90086 96.4413 6.63359C96.4413 6.63359 92.9078 15.5836 89.2597 24.8203C85.553 34.2057 81.7303 43.8843 81.3782 44.7777C80.7802 46.2833 79.7907 47.6088 78.9961 47.8263H79.0419L93.0286 47.7778C96.4563 47.7627 99.3975 45.7291 100.802 42.8123L116.412 3.36648C117.077 1.89518 117.733 1.39147 118.812 1.3877L104.328 1.46251Z" fill="black" fill-opacity="0.75"/>
<mask id="mask3_687_2720" style="mask-type:luminance" maskUnits="userSpaceOnUse" x="78" y="1" width="41" height="47">
<path d="M104.328 1.46251C100.744 1.47919 97.5836 3.90086 96.4413 6.63359C96.4413 6.63359 92.9078 15.5836 89.2597 24.8203C85.553 34.2057 81.7303 43.8843 81.3782 44.7777C80.7802 46.2833 79.7907 47.6088 78.9961 47.8263H79.0419L93.0286 47.7778C96.4563 47.7627 99.3975 45.7291 100.802 42.8123L116.412 3.36648C117.077 1.89518 117.733 1.39147 118.812 1.3877L104.328 1.46251Z" fill="white"/>
</mask>
<g mask="url(#mask3_687_2720)">
<path d="M78.7656 1.38799L78.9956 48.0305L119.043 47.826L118.811 1.18726L78.7656 1.38799Z" fill="black" fill-opacity="0.75"/>
</g>
<path d="M75.5711 1.60726L65.472 1.66H65.0892C61.547 1.72512 58.4432 4.12472 57.3062 6.83485C57.3062 6.83485 53.8019 15.6907 50.1427 24.9333C46.3221 34.5792 42.3337 44.6613 41.9801 45.5655C41.3974 47.0615 40.9831 47.8263 39.7683 48.0361C39.7512 48.0361 39.739 48.0517 39.7188 48.0517L53.9073 47.9765C57.3371 47.9564 60.2656 45.9266 61.6668 43.0146L70.2832 21.2411L77.279 3.56398C77.9382 2.10989 78.5843 1.61103 79.6393 1.58789L75.5711 1.60726Z" fill="black" fill-opacity="0.75"/>
<mask id="mask4_687_2720" style="mask-type:luminance" maskUnits="userSpaceOnUse" x="39" y="1" width="41" height="48">
<path d="M75.5711 1.60702L65.472 1.65976H65.089C61.547 1.72487 58.4432 4.12448 57.3062 6.8346C57.3062 6.8346 53.8019 15.6904 50.1427 24.9331C46.3221 34.579 42.3337 44.6611 41.9801 45.5653C41.3974 47.0613 40.9831 47.826 39.7683 48.0359C39.7512 48.0359 39.739 48.0515 39.7188 48.0515L53.9073 47.9761C57.3371 47.9562 60.2656 45.9263 61.6668 43.0144L70.2832 21.2408L77.279 3.56372C77.9382 2.10965 78.5842 1.61079 79.6393 1.58765L75.5711 1.60702Z" fill="white"/>
</mask>
<g mask="url(#mask4_687_2720)">
<path d="M39.4883 1.58795L39.7194 48.2525L79.9094 48.0496L79.6762 1.38184L39.4883 1.58795Z" fill="black" fill-opacity="0.75"/>
</g>
<path d="M40.423 1.78613L25.8861 1.85987C22.3254 1.90238 19.195 4.31275 18.05 7.03525C18.05 7.03525 3.4172 43.9954 2.72967 45.7616C2.13905 47.2861 1.72205 48.0471 0.460938 48.2511L14.6384 48.18C18.066 48.1611 21.0041 46.1291 22.4159 43.2172L31.1324 21.1956L38.0254 3.76384C38.6884 2.292 39.3462 1.79475 40.423 1.78613Z" fill="black" fill-opacity="0.75"/>
<mask id="mask5_687_2720" style="mask-type:luminance" maskUnits="userSpaceOnUse" x="0" y="1" width="41" height="48">
<path d="M40.4229 1.78589L25.8861 1.85961C22.3254 1.90213 19.195 4.3125 18.0499 7.035C18.0499 7.035 3.4172 43.9952 2.72967 45.7614C2.13905 47.2859 1.72205 48.0469 0.460938 48.2509L14.6383 48.1798C18.0659 48.1609 21.004 46.1289 22.4158 43.217L31.1323 21.1953L38.0253 3.76359C38.6885 2.29176 39.3461 1.79449 40.4229 1.78589Z" fill="white"/>
</mask>
<g mask="url(#mask5_687_2720)">
<path d="M0.234375 1.78843L0.462313 48.453L40.6576 48.2506L40.4201 1.58447L0.234375 1.78843Z" fill="black" fill-opacity="0.75"/>
</g>
<path d="M34.8941 63.6897C31.7355 63.7075 29.2543 66.162 29.25 69.2816C29.25 72.3786 31.7162 74.7912 34.8755 74.7756C38.0453 74.7567 40.5361 72.3195 40.5435 69.2241C40.5467 66.1022 38.0687 63.6736 34.8941 63.6897ZM34.8819 71.9412C33.4897 71.9487 32.4518 70.8084 32.4518 69.2832C32.4518 67.7582 33.5057 66.5311 34.8903 66.521C36.2734 66.5167 37.3178 67.6903 37.3109 69.2569C37.3178 70.782 36.2627 71.9331 34.8819 71.9412Z" fill="black" fill-opacity="0.75"/>
<path d="M46.7444 70.9408L44.3336 63.9217L40.8164 63.9368C40.8164 63.9368 43.7413 71.5366 44.1349 72.6048C44.4906 73.5928 45.1611 74.7859 46.7279 74.7772C48.0896 74.7724 48.7564 73.9598 49.2533 72.6327C49.7348 71.3852 52.7017 63.8867 52.7017 63.8867H50.7514C49.8199 63.8905 49.1602 64.6412 48.8539 65.5356L46.7444 70.9408Z" fill="black" fill-opacity="0.75"/>
<path d="M82.5531 63.4578C79.2708 63.475 76.811 65.8671 76.8184 69.0142L76.8455 75.2648C76.8514 76.3222 77.6753 76.798 78.4315 76.7926C79.2464 76.7867 80.0719 76.255 80.0681 75.2497L80.0623 73.6289C80.8531 74.2235 81.8282 74.5351 82.9653 74.5319C85.9141 74.512 88.3122 72.0139 88.2936 68.954C88.2792 65.808 85.8246 63.4428 82.5531 63.4578ZM82.5642 66.4731C83.9174 66.466 84.9916 67.5644 84.9986 68.9798C85.0045 70.4108 83.9404 71.5468 82.5845 71.5494C81.2398 71.5613 80.1474 70.4156 80.1421 69.004C80.1352 67.6172 81.2286 66.4801 82.5642 66.4731Z" fill="black" fill-opacity="0.75"/>
<path d="M95.6551 63.38C92.4805 63.3971 90.0003 65.8496 90.0137 68.9762C90.0265 72.0679 92.5226 74.4804 95.6919 74.4643C98.8809 74.446 101.368 72.0108 101.352 68.9186C101.347 65.7893 98.8388 63.3644 95.6551 63.38ZM95.6898 71.6308C94.2933 71.6358 93.242 70.5019 93.2314 68.9762C93.2219 67.4032 94.272 66.2224 95.6637 66.2155C97.0526 66.2068 98.1113 67.3801 98.1187 68.9531C98.122 70.4766 97.0765 71.6233 95.6898 71.6308Z" fill="black" fill-opacity="0.75"/>
<path d="M103.395 68.2203L103.418 74.3056L106.48 74.2869L106.45 68.2015C106.449 66.7942 107.562 66.1189 109.623 66.3772L109.875 66.4008L109.868 63.5061L109.66 63.4916C105.704 63.0977 103.384 64.9398 103.395 68.2203Z" fill="black" fill-opacity="0.75"/>
<path d="M64.9023 72.552C66.1986 73.7516 67.9172 74.6024 69.943 74.5943C72.7001 74.5803 74.6243 73.0724 74.612 70.9273C74.605 68.468 72.4615 67.9315 70.073 67.5509C68.8918 67.368 68.2522 67.212 68.2522 66.874C68.2462 66.6512 68.6489 66.288 69.7135 66.2799C70.581 66.2762 71.2787 66.5678 72.0349 66.9349C72.8099 67.3245 73.5932 67.212 73.9123 66.5161C74.1364 66.006 74.1508 65.336 73.6075 64.8209C72.7096 63.9804 71.4177 63.5052 69.706 63.5105C66.5644 63.5304 65.1467 65.336 65.1542 66.9945C65.167 69.5884 68.0482 70.0147 69.5916 70.2449C71.4438 70.5188 71.5381 70.7454 71.5434 71.0947C71.5434 71.494 70.9033 71.7739 69.9323 71.7814C68.7969 71.7847 67.6508 71.3116 66.8887 70.6954L64.9023 72.552Z" fill="black" fill-opacity="0.75"/>
<path d="M117.397 74.3253L117.362 71.3989L116.199 71.4048C115.623 71.408 115.2 71.0626 115.2 70.385L115.193 66.4033L117.291 66.3925L117.281 63.7868V63.6306L115.339 63.6409L115.336 63.0742C115.329 62.0583 114.505 61.5384 113.69 61.5437C112.926 61.548 112.11 62.0399 112.117 63.0903L112.156 70.8575C112.17 73.0693 113.777 74.3701 116.101 74.3588C116.629 74.3588 117.397 74.3253 117.397 74.3253Z" fill="black" fill-opacity="0.75"/>
<path d="M3.70793 63.9744C2.73441 63.9781 1.94941 64.7817 1.95314 65.7686L1.99627 74.8187L5.53037 74.8036L5.48458 65.7513C5.48084 64.7644 4.68626 63.9658 3.70793 63.9744Z" fill="black" fill-opacity="0.75"/>
<path d="M54.1733 65.5899C54.0236 64.8849 54.2808 64.2305 54.9189 63.9528C55.673 63.6331 56.8303 63.5234 57.7979 63.5181C60.0171 63.496 63.2534 64.8741 63.2742 69.0653C63.2976 73.2559 60.5145 74.6911 57.8964 74.7041C55.8115 74.7159 53.2514 73.8273 53.1258 71.086C52.9899 68.2715 55.8333 67.9131 57.1056 67.7914C58.4013 67.6613 59.811 67.7097 59.811 67.7097C59.4286 66.5516 58.0142 66.0129 56.172 66.4144C55.2097 66.6339 54.366 66.4827 54.1733 65.5899ZM60.2014 69.8908C59.0697 69.8317 56.6076 69.8461 56.4932 70.9165C56.3946 71.8454 57.2802 72.1935 58.1628 72.1198C59.2705 72.0353 60.0635 71.4266 60.2014 69.8908Z" fill="black" fill-opacity="0.75"/>
<path d="M12.222 74.7678L12.1895 68.9885C13.2973 70.6606 14.797 72.9036 15.1415 73.4062C15.7833 74.3609 16.8308 75.2047 18.0829 74.7527C19 74.4238 19.3973 73.6532 19.4004 72.6576L19.4042 68.9961C19.9091 69.7845 21.8902 72.7454 22.4058 73.4363C23.0603 74.3023 24.7517 75.2649 25.9334 74.6564C26.7861 74.2113 27.2355 73.4612 27.2297 72.5575L27.1951 65.5487C27.1892 64.6058 26.3568 63.7653 25.4178 63.7695C24.4907 63.7728 23.6562 64.5085 23.6631 65.5654L23.6839 70.1854C22.8488 68.8814 20.7681 65.298 20.7681 65.298C20.0773 64.057 19.2535 63.6458 18.0526 63.8568C16.6513 64.1016 16.4378 65.1149 16.4437 66.0561L16.4511 70.313C15.746 69.2523 14.0141 66.5782 13.1076 65.2075C12.6374 64.4929 11.7076 63.5398 10.1115 63.881C9.04741 64.1053 8.63574 64.9207 8.64266 65.6838L8.68473 74.785L12.2236 74.7661L12.222 74.7678Z" fill="black" fill-opacity="0.75"/>
</g>
</svg>
