<svg width="214" height="55" viewBox="0 0 214 55" fill="none" xmlns="http://www.w3.org/2000/svg">
<g clip-path="url(#clip0_687_2667)">
<path d="M13.9138 6.90526C5.88021 18.2548 0.820788 25.4337 0.547306 25.8781C0.342194 26.22 2.05146 26.3225 8.61504 26.3225L16.9221 26.2883L25.9812 13.4688C30.9722 6.39248 35.1086 0.478422 35.1428 0.307495C35.2112 0.136568 31.8952 -0.000171661 27.0409 -0.000171661H18.8364L13.9138 6.90526Z" fill="black"/>
<path d="M31.0746 18.5284C26.528 24.9895 22.3574 30.8351 21.8104 31.5189L20.819 32.8179L12.7855 32.8863L4.75195 32.9888L6.70052 35.792L8.64908 38.6294H17.0587L25.4682 38.5952L34.6299 25.639L43.7916 12.6828L41.843 9.777C40.7833 8.17029 39.7919 6.83706 39.621 6.83706C39.4842 6.83706 35.6213 12.1016 31.0746 18.5284Z" fill="black"/>
<path d="M74.183 24.5108C74.183 30.5274 74.0121 35.6894 73.807 36.5782C73.0891 39.7574 70.115 41.2958 65.2948 40.9197C63.8932 40.8172 62.3891 40.6121 61.9447 40.4753C61.1926 40.2702 61.1584 40.3044 61.261 41.9111C61.3635 43.4836 61.4319 43.5862 62.56 43.8255C64.9188 44.3724 71.4824 44.2699 73.5335 43.6546C75.9948 42.9025 78.0801 41.3983 79.0373 39.5865C79.7894 38.1507 79.8236 37.8431 79.9261 26.0491L80.0287 14.0159H77.1229H74.183V24.5108Z" fill="black"/>
<path d="M91.6167 25.3655C87.3777 31.5872 83.6515 37.1252 83.3097 37.6722L82.6602 38.6294H85.5317L88.3691 38.5952L90.4202 35.5527L92.4713 32.476H101.736H111.034L112.846 35.5527L114.692 38.5952L118.042 38.6294H121.392L120.606 37.3304C120.161 36.6125 116.743 31.0744 113.017 25.0236L106.214 14.016H102.761L99.3084 14.0502L91.6167 25.3655ZM105.701 23.8613L108.983 29.2284L105.428 29.331C103.479 29.3652 100.266 29.3652 98.2828 29.331L94.6934 29.2284L98.3854 23.8613C100.402 20.8872 102.112 18.4601 102.214 18.4943C102.317 18.4943 103.855 20.8872 105.701 23.8613Z" fill="black"/>
<path d="M118.486 20.9214C121.05 24.6818 124.81 30.1856 126.827 33.1256L130.485 38.4585L134.04 38.5268L137.596 38.6294L145.048 26.5278C149.116 19.8959 152.466 14.3578 152.466 14.2211C152.466 14.1185 151.031 14.016 149.287 14.016H146.142L139.954 23.9981C136.57 29.4677 133.63 34.0144 133.459 34.0486C133.288 34.1169 130.075 29.6045 126.315 24.1006L119.477 14.016H116.64H113.803L118.486 20.9214Z" fill="black"/>
<path d="M156.227 26.3227V38.6294H168.362H180.498V37.0911V35.5527H171.268H162.038V31.7923V28.032H169.388H176.738V26.4936V24.9553H169.388H162.038V21.024V17.0927H171.268H180.498V15.5543V14.016H168.362H156.227V26.3227Z" fill="black"/>
<path d="M185.285 26.3227V38.6294H188.191H191.097V33.3307V28.032L194.618 28.0661H198.105L202.036 32.6812C207.574 39.1764 206.822 38.6636 210.582 38.561L213.762 38.4585L209.215 33.3649C204.634 28.2712 204.361 27.7243 206.241 27.6901C208.702 27.6901 211.608 23.9981 211.608 20.9556C211.574 18.1866 209.249 15.1099 206.583 14.392C205.796 14.1527 201.216 14.016 195.301 14.016H185.285V26.3227ZM203.403 17.708C204.873 18.4259 205.933 20.4086 205.625 21.8444C205.523 22.3572 204.942 23.246 204.395 23.793L203.369 24.7843H197.318H191.268L191.165 21.4C191.131 19.5198 191.165 17.7764 191.233 17.5371C191.37 17.1952 192.669 17.0927 196.806 17.0927C201.25 17.0927 202.412 17.1952 203.403 17.708Z" fill="black"/>
<path d="M37.1263 29.7412L27.9304 42.7317H19.7601C15.0767 42.7317 11.624 42.8684 11.6924 43.0393C11.7266 43.2102 12.6496 44.5777 13.6752 46.116L15.5553 48.885L23.9307 48.7825L32.3061 48.7141L41.4678 35.8262L50.6295 22.9042L48.5442 19.8275C47.416 18.1524 46.4247 16.7508 46.3905 16.7508C46.3563 16.785 42.1857 22.6307 37.1263 29.7412Z" fill="black"/>
<path d="M49.4659 29.6727C48.6797 30.7667 44.8851 36.1679 41.0222 41.6376L34.0142 51.5855L27.2797 51.6197H20.5452L19.8273 52.6453L19.1094 53.6708H21.434C22.6988 53.6708 26.3908 53.7734 29.5701 53.8759L35.3816 54.1152L44.5432 41.0906C49.5685 33.9459 53.6707 27.9977 53.6707 27.8951C53.6707 27.7925 53.0554 27.69 52.3033 27.69C51.0384 27.69 50.8333 27.8267 49.4659 29.6727Z" fill="black"/>
</g>
<defs>
<clipPath id="clip0_687_2667">
<rect width="214" height="54.0128" fill="white"/>
</clipPath>
</defs>
</svg>
