<svg width="217" height="45" viewBox="0 0 217 45" fill="none" xmlns="http://www.w3.org/2000/svg">
<path d="M54.8419 13.686H66.2292L70.4172 29.7114H70.6941C70.9018 28.3615 71.1095 26.9771 71.4556 25.6619L74.8822 13.686H86.1656L91.1845 44.1791H80.4893L79.001 27.4963H78.7933C78.5857 28.5 78.378 29.573 78.0665 30.5417L73.7054 44.1791H67.2329L63.2871 31.269C62.9757 29.9883 62.6641 28.777 62.5949 27.4616H62.2487C62.1795 28.6731 62.0757 29.9191 61.9719 31.1303L60.6913 44.1451H49.9961" fill="black" fill-opacity="0.75"/>
<path d="M107.623 33.1383L106.342 27.7731C106.03 26.4926 105.823 25.1427 105.615 23.862H105.2L103.192 33.1724M100.319 44.1791H88.5859L99.1772 13.686H111.43L122.298 44.1791H110.565L109.561 40.3724H101.185L100.319 44.1791Z" fill="black" fill-opacity="0.75"/>
<path d="M152.411 26.2155C152.342 31.1996 152.342 35.353 148.742 39.229C145.522 42.7597 140.538 44.6643 135.796 44.6643C126.486 44.6643 118.975 38.9177 118.975 29.1229C118.975 19.1893 126.278 13.2014 135.865 13.2014C141.161 13.2014 148.43 15.832 150.818 21.0583L140.504 24.8657C139.673 23.3427 138.081 22.512 136.315 22.512C132.37 22.512 130.155 25.9041 130.155 29.5729C130.155 32.9303 132.267 36.0803 135.865 36.0803C137.596 36.0803 139.846 35.2836 140.365 33.4143H135.312V26.2155" fill="black" fill-opacity="0.75"/>
<path d="M153.244 13.686H163.869L173.803 30.577H174.114C173.664 28.0155 173.18 25.3849 173.18 22.8236V13.686H183.771V44.1791H173.18L163.454 28.1886H163.143C163.488 30.2998 163.835 32.2724 163.835 34.2803V44.1791H153.244" fill="black" fill-opacity="0.75"/>
<path d="M201.735 33.1383L200.455 27.7731C200.143 26.4926 199.937 25.1427 199.729 23.862H199.313L197.306 33.1724M194.433 44.1791H182.699L193.29 13.686H205.543L216.412 44.1791H204.677L203.674 40.3724H195.298L194.433 44.1791Z" fill="black" fill-opacity="0.75"/>
<path d="M33.0373 44.2144H44.5284L33.4526 13.7903H25.0419L23.4844 18.013" fill="black" fill-opacity="0.75"/>
<path d="M25.2482 0.810547C22.1678 0.810547 19.6758 3.30269 19.6758 6.38312C19.6758 9.46355 22.1678 11.9557 25.2482 11.9557C28.3288 11.9557 30.8208 9.46355 30.8208 6.38312C30.8208 3.33723 28.3288 0.810547 25.2482 0.810547Z" fill="black" fill-opacity="0.75"/>
<path d="M0.570312 44.2143H17.6687L9.11952 20.7131" fill="black" fill-opacity="0.75"/>
<path d="M19.6408 44.2144H31.0973L20.0561 13.7903H11.6454L10.0879 18.013" fill="black" fill-opacity="0.75"/>
</svg>
