<svg width="214" height="61" viewBox="0 0 214 61" fill="none" xmlns="http://www.w3.org/2000/svg">
<mask id="mask0_858_2726" style="mask-type:luminance" maskUnits="userSpaceOnUse" x="0" y="0" width="214" height="61">
<path d="M214 0H0V60.8623H214V0Z" fill="white"/>
</mask>
<g mask="url(#mask0_858_2726)">
<path d="M90.363 11.0127V14.9254H78.9443V21.0952H89.7922V25.1583H78.8961V35.5148H74.502V11.0127H90.363Z" fill="black" fill-opacity="0.75"/>
<path d="M89.6699 35.5142L99.9227 11.0061H104.734L115.207 35.5142H110.393L107.355 28.8326H99.6177L101.17 24.8959H106.186L102.221 15.6922L94.2633 35.5142H89.6699Z" fill="black" fill-opacity="0.75"/>
<path d="M117.299 35.5148V11.0127H121.775L135.205 28.5292V11.0127H139.523V35.5148H135.036L121.606 17.6281V35.5148H117.299Z" fill="black" fill-opacity="0.75"/>
<path d="M141.604 35.5142L151.857 11.0061H156.671L167.144 35.5142H162.312L159.274 28.8326H151.555L153.088 24.8898H158.105L154.155 15.6922L146.199 35.5142H141.604Z" fill="black" fill-opacity="0.75"/>
<path d="M169.571 34.4942V30.38C172.201 31.3305 174.983 31.7956 177.78 31.7523C181.485 31.7523 183.338 30.4953 183.336 27.9812C183.336 26.1513 182.199 25.2364 179.923 25.2364H175.804C170.861 25.2364 168.389 22.952 168.387 18.3833C168.387 13.355 171.911 10.841 178.957 10.841C181.565 10.8261 184.159 11.2306 186.638 12.0388V16.1531C184.18 15.2342 181.576 14.7702 178.951 14.7837C174.898 14.7837 172.871 15.9875 172.869 18.3953C172.869 20.2232 173.849 21.1372 175.81 21.1372H179.93C185.188 21.1372 187.818 23.4226 187.818 27.9933C187.818 33.1338 184.474 35.7041 177.786 35.7041C175 35.7418 172.227 35.3334 169.571 34.4942Z" fill="black" fill-opacity="0.75"/>
<path d="M188.383 35.5142L198.633 11.0061H203.447L213.917 35.5142H209.106L206.065 28.8326H198.328L199.868 24.8898H204.881L200.931 15.6922L192.977 35.5142H188.383Z" fill="black" fill-opacity="0.75"/>
<path d="M74.5234 41.8591H81.5872V42.8975H75.6317V46.461H80.9559V47.4873H75.6317V51.8303H74.5234V41.8591Z" fill="black" fill-opacity="0.75"/>
<path d="M82.3027 49.6929V49.6598C82.3027 48.0767 83.5682 47.252 85.4074 47.252C86.1573 47.2402 86.9046 47.3417 87.624 47.5531V47.3243C87.624 46.0151 86.8388 45.3289 85.4768 45.3289C84.7107 45.3326 83.9559 45.5139 83.2722 45.8586L82.952 44.9557C83.7693 44.5431 84.6724 44.3275 85.5886 44.3267C86.6153 44.3267 87.4157 44.6125 87.935 45.1392C88.4545 45.666 88.6931 46.3642 88.6931 47.3032V51.8178H87.624V50.7223C87.3203 51.1226 86.9251 51.445 86.4713 51.6628C86.0175 51.8805 85.5182 51.9874 85.0148 51.9743C83.6558 51.9863 82.3027 51.2038 82.3027 49.6929ZM87.6391 49.1241V48.4379C86.9526 48.237 86.2406 48.1357 85.5251 48.1369C84.1782 48.1369 83.4111 48.7388 83.4111 49.6207V49.6478C83.4111 50.5748 84.2506 51.1166 85.2231 51.1166C86.558 51.1044 87.6391 50.2919 87.6391 49.1241Z" fill="black" fill-opacity="0.75"/>
<path d="M90.625 44.4651H91.7062V46.3884C92.2438 45.1635 93.2947 44.2816 94.6688 44.3388V45.5186H94.5843C92.9988 45.5186 91.7062 46.6743 91.7062 48.8955V51.8299H90.625V44.4651Z" fill="black" fill-opacity="0.75"/>
<path d="M95.9609 44.465H97.0421V45.705C97.5193 44.9797 98.1626 44.3085 99.3886 44.3085C99.8795 44.2939 100.364 44.426 100.778 44.6877C101.193 44.9495 101.52 45.3289 101.717 45.7772C101.971 45.3259 102.342 44.9513 102.792 44.6928C103.242 44.4343 103.753 44.3015 104.272 44.3085C105.942 44.3085 106.966 45.4462 106.966 47.2731V51.8297H105.888V47.5289C105.888 46.1023 105.184 45.3047 104.003 45.3047C102.91 45.3047 101.998 46.1324 101.998 47.5861V51.8297H100.929V47.4988C100.929 46.1174 100.213 45.3047 99.0625 45.3047C97.9119 45.3047 97.0421 46.2738 97.0421 47.6282V51.8418H95.9609V44.465Z" fill="black" fill-opacity="0.75"/>
<path d="M108.418 49.6929V49.6598C108.418 48.0767 109.68 47.252 111.52 47.252C112.27 47.2402 113.017 47.3417 113.736 47.5531V47.3243C113.736 46.0151 112.951 45.3289 111.589 45.3289C110.823 45.3334 110.068 45.5147 109.385 45.8586L109.065 44.9557C109.881 44.5434 110.785 44.3279 111.701 44.3267C112.728 44.3267 113.513 44.6125 114.044 45.1392C114.576 45.666 114.806 46.3642 114.806 47.3032V51.8178H113.736V50.7223C113.433 51.1226 113.037 51.445 112.583 51.6628C112.129 51.8805 111.63 51.9874 111.126 51.9743C109.759 51.9863 108.418 51.2038 108.418 49.6929ZM113.751 49.1241V48.4379C113.065 48.2367 112.352 48.1354 111.637 48.1369C110.287 48.1369 109.523 48.7388 109.523 49.6207V49.6478C109.523 50.5748 110.366 51.1166 111.335 51.1166C112.664 51.1044 113.746 50.2919 113.746 49.1241H113.751Z" fill="black" fill-opacity="0.75"/>
<path d="M116.286 48.1857V48.1556C116.275 47.6591 116.363 47.1654 116.544 46.703C116.726 46.2405 116.997 45.8183 117.343 45.4608C117.689 45.1033 118.102 44.8175 118.56 44.6198C119.017 44.4222 119.508 44.3166 120.007 44.3092C120.559 44.2994 121.105 44.4118 121.608 44.6382C122.111 44.8646 122.558 45.1993 122.915 45.6184L122.199 46.3889C121.619 45.787 120.977 45.2783 119.992 45.2783C118.521 45.2783 117.394 46.5454 117.394 48.1255V48.1556C117.394 49.7507 118.548 51.0178 120.064 51.0178C120.491 51.0041 120.91 50.8992 121.291 50.7101C121.674 50.5211 122.011 50.2524 122.28 49.9223L122.969 50.5754C122.239 51.4031 121.369 52.002 120.007 52.002C119.51 51.9966 119.02 51.8933 118.564 51.6982C118.109 51.5032 117.695 51.2201 117.349 50.8655C117.004 50.5107 116.732 50.0913 116.55 49.6314C116.367 49.1715 116.278 48.6802 116.286 48.1857Z" fill="black" fill-opacity="0.75"/>
<path d="M123.739 48.1852V48.1551C123.737 47.6599 123.833 47.1691 124.022 46.7108C124.21 46.2525 124.487 45.8357 124.836 45.4841C125.186 45.1325 125.603 44.8531 126.061 44.6617C126.52 44.4704 127.011 44.3708 127.508 44.3689C128.511 44.3649 129.476 44.7583 130.188 45.4628C130.541 45.8116 130.821 46.2262 131.014 46.683C131.205 47.1398 131.305 47.6298 131.307 48.125V48.1551C131.314 48.6576 131.221 49.1566 131.034 49.623C130.846 50.0893 130.566 50.5138 130.212 50.8717C129.858 51.2296 129.437 51.5138 128.971 51.7077C128.506 51.9017 128.006 52.0016 127.502 52.0016C127.001 52.0028 126.507 51.9045 126.045 51.7123C125.584 51.5202 125.165 51.238 124.815 50.8826C124.464 50.527 124.189 50.1052 124.004 49.642C123.819 49.1788 123.729 48.6835 123.739 48.1852ZM130.196 48.1852V48.1551C130.196 46.575 129.034 45.2778 127.502 45.2778C125.971 45.2778 124.85 46.575 124.85 48.125V48.1551C124.85 49.7352 125.998 51.0173 127.529 51.0173C129.06 51.0173 130.196 49.7352 130.196 48.1852Z" fill="black" fill-opacity="0.75"/>
<path d="M132.303 50.8912L132.849 50.1057C133.562 50.6846 134.444 51.0146 135.362 51.0447C136.229 51.0447 136.872 50.5903 136.872 49.877V49.8499C136.872 49.1094 136.012 48.8236 135.06 48.5557C133.922 48.2277 132.659 47.8273 132.659 46.473V46.4459C132.659 45.1788 133.698 44.3391 135.13 44.3391C136.06 44.3579 136.966 44.6386 137.742 45.1487L137.25 45.9764C136.616 45.5396 135.87 45.292 135.099 45.2631C134.244 45.2631 133.698 45.7176 133.698 46.3315V46.3495C133.698 47.0479 134.604 47.3187 135.565 47.6196C136.688 47.9628 137.896 48.4022 137.896 49.7264V49.7566C137.896 51.153 136.757 51.9627 135.311 51.9627C134.217 51.948 133.159 51.5711 132.303 50.8912Z" fill="black" fill-opacity="0.75"/>
<path d="M143.587 41.8591H144.626L150.819 49.8499V41.8591H151.907V51.8303H151.025L144.659 43.6409V51.8183H143.574L143.587 41.8591Z" fill="black" fill-opacity="0.75"/>
<path d="M153.596 49.6929V49.6598C153.596 48.0767 154.859 47.252 156.694 47.252C157.446 47.24 158.196 47.3414 158.917 47.5531V47.3243C158.917 46.0151 158.129 45.3289 156.767 45.3289C156.001 45.3334 155.246 45.5147 154.562 45.8586L154.239 44.9557C155.059 44.5434 155.964 44.3279 156.882 44.3267C157.906 44.3267 158.694 44.6125 159.225 45.1392C159.757 45.666 159.983 46.3642 159.983 47.3032V51.8178H158.917V50.7223C158.613 51.123 158.216 51.4458 157.762 51.6636C157.307 51.8812 156.806 51.9878 156.302 51.9743C154.943 51.9863 153.596 51.2038 153.596 49.6929ZM158.933 49.1241V48.4379C158.246 48.2376 157.534 48.1362 156.819 48.1369C155.471 48.1369 154.705 48.7388 154.705 49.6207V49.6478C154.705 50.5748 155.547 51.1166 156.517 51.1166C157.848 51.1044 158.933 50.2919 158.933 49.1241Z" fill="black" fill-opacity="0.75"/>
<path d="M161.47 48.1857V48.1556C161.458 47.6588 161.546 47.1647 161.728 46.7018C161.909 46.2389 162.181 45.8165 162.527 45.4589C162.873 45.1012 163.287 44.8155 163.745 44.6182C164.203 44.4208 164.695 44.3159 165.194 44.3092C165.746 44.2994 166.292 44.4118 166.795 44.6382C167.298 44.8646 167.745 45.1993 168.102 45.6184L167.383 46.3889C166.809 45.787 166.175 45.2783 165.179 45.2783C163.705 45.2783 162.584 46.5454 162.584 48.1255V48.1556C162.584 49.7507 163.732 51.0178 165.248 51.0178C165.675 51.0045 166.094 50.8998 166.477 50.7107C166.86 50.5217 167.198 50.2528 167.467 49.9223L168.153 50.5754C167.426 51.4031 166.553 52.002 165.194 52.002C164.697 51.9973 164.206 51.8947 163.75 51.6999C163.293 51.5052 162.88 51.2222 162.533 50.8674C162.188 50.5125 161.915 50.0929 161.732 49.6326C161.55 49.1723 161.46 48.6805 161.47 48.1857Z" fill="black" fill-opacity="0.75"/>
<path d="M169.613 41.6453H170.848V42.8491H169.613V41.6453ZM169.686 44.4653H170.766V51.8301H169.686V44.4653Z" fill="black" fill-opacity="0.75"/>
<path d="M172.479 48.1858V48.1557C172.441 47.6399 172.51 47.1218 172.682 46.6337C172.853 46.1456 173.123 45.698 173.476 45.3184C173.828 44.9389 174.256 44.6357 174.731 44.4276C175.206 44.2196 175.719 44.1112 176.238 44.1092C176.757 44.1071 177.271 44.2115 177.747 44.4156C178.224 44.6199 178.654 44.9197 179.009 45.2963C179.364 45.6731 179.639 46.1186 179.814 46.6053C179.99 47.092 180.063 47.6095 180.029 48.1257V48.1557C180.036 48.6584 179.944 49.1575 179.756 49.6241C179.569 50.0906 179.289 50.5152 178.935 50.8732C178.581 51.2311 178.159 51.5154 177.693 51.7091C177.228 51.903 176.728 52.0025 176.224 52.0021C175.726 52.001 175.232 51.901 174.773 51.7077C174.313 51.5144 173.896 51.232 173.549 50.8767C173.2 50.5215 172.926 50.1005 172.742 49.6384C172.559 49.1765 172.469 48.6827 172.479 48.1858ZM178.933 48.1858V48.1557C178.933 46.5756 177.77 45.2785 176.239 45.2785C174.708 45.2785 173.587 46.5756 173.587 48.1257V48.1557C173.587 49.7358 174.738 51.0179 176.266 51.0179C177.84 51.0179 178.933 49.7358 178.933 48.1858Z" fill="black" fill-opacity="0.75"/>
<path d="M181.641 44.4659H182.71V45.748C182.951 45.303 183.31 44.9331 183.749 44.6791C184.187 44.4252 184.688 44.2973 185.195 44.3094C186.95 44.3094 187.977 45.5132 187.977 47.2589V51.8307H186.908V47.5298C186.908 46.1604 186.177 45.3057 184.9 45.3057C183.622 45.3057 182.71 46.2326 182.71 47.614V51.8277H181.629L181.641 44.4659Z" fill="black" fill-opacity="0.75"/>
<path d="M189.391 49.6929V49.6598C189.391 48.0767 190.656 47.252 192.492 47.252C193.243 47.24 193.992 47.3415 194.712 47.5531V47.3243C194.712 46.0151 193.927 45.3289 192.565 45.3289C191.798 45.3326 191.043 45.5139 190.36 45.8586L190.034 44.9557C190.854 44.5434 191.759 44.3279 192.676 44.3267C193.701 44.3267 194.488 44.6125 195.02 45.1392C195.552 45.666 195.778 46.3642 195.778 47.3032V51.8178H194.712V50.7223C194.408 51.1233 194.012 51.446 193.558 51.6638C193.104 51.8816 192.603 51.988 192.099 51.9743C190.738 51.9863 189.391 51.2038 189.391 49.6929ZM194.727 49.1241V48.4379C194.04 48.2373 193.328 48.136 192.613 48.1369C191.266 48.1369 190.499 48.7388 190.499 49.6207V49.6478C190.499 50.5748 191.344 51.1166 192.311 51.1166C193.645 51.1044 194.727 50.2919 194.727 49.1241Z" fill="black" fill-opacity="0.75"/>
<path d="M197.809 41.4314H198.89V51.83H197.809V41.4314Z" fill="black" fill-opacity="0.75"/>
<path d="M204.257 51.0446C204.691 51.0475 205.12 50.9565 205.515 50.7777C205.91 50.599 206.261 50.3367 206.544 50.0092L207.217 50.6112C206.859 51.0556 206.403 51.4114 205.884 51.6511C205.366 51.8906 204.799 52.0076 204.228 51.9926C202.234 51.9926 200.604 50.4397 200.604 48.1463C200.604 46.0093 202.081 44.2998 204.085 44.2998C206.235 44.2998 207.471 46.0364 207.471 48.2124C207.471 48.3117 207.471 48.4261 207.471 48.5977H201.7C201.856 50.1477 202.98 51.0446 204.257 51.0446ZM206.371 47.7128C206.245 46.3735 205.483 45.2328 204.052 45.2328C202.805 45.2328 201.851 46.2893 201.693 47.7128H206.371Z" fill="black" fill-opacity="0.75"/>
<path d="M208.41 50.8912L208.957 50.1057C209.67 50.6846 210.554 51.0146 211.473 51.0447C212.343 51.0447 212.983 50.5903 212.983 49.877V49.8499C212.983 49.1094 212.125 48.8236 211.171 48.5557C210.032 48.2277 208.755 47.8273 208.755 46.473V46.4459C208.755 45.1788 209.797 44.3391 211.225 44.3391C212.155 44.3571 213.061 44.6378 213.838 45.1487L213.349 45.9764C212.714 45.5396 211.968 45.292 211.198 45.2631C210.34 45.2631 209.797 45.7176 209.797 46.3315V46.3495C209.797 47.0479 210.703 47.3187 211.66 47.6196C212.786 47.9628 213.994 48.4022 213.994 49.7264V49.7566C213.994 51.153 212.856 51.9627 211.409 51.9627C210.319 51.9448 209.264 51.5682 208.41 50.8912Z" fill="black" fill-opacity="0.75"/>
<path d="M87.3476 41.6875L88.4559 42.1992L86.8735 43.692H86.043L87.3476 41.6875Z" fill="black" fill-opacity="0.75"/>
<path d="M12.6094 28.598L12.6335 28.5107H12.6094V28.598Z" fill="black" fill-opacity="0.75"/>
<path d="M8.66387 18.6418L8.41321 18.2567L7.98739 18.1122L7.93001 17.9617L7.54949 17.6396L7.37735 17.4561L7.15991 17.2815L7.13575 16.9264L7.07535 16.2522L7.00589 15.9813L6.78845 15.879L6.68577 15.7074L6.73409 15.0002L6.45021 14.6661L6.36565 14.3199L6.34149 14.0761L6.11499 13.5946L5.9338 13.4833L5.89152 13.1521V13.0349L5.93984 12.782L5.98514 12.6677L6.21767 11.6714C2.66616 16.5532 0.0448085 23.3069 -0.0820312 29.8139C2.41965 25.7827 5.35646 22.0364 8.67595 18.6418H8.66387Z" fill="black" fill-opacity="0.75"/>
<path d="M11.8292 15.5842L11.8112 15.4097L11.8926 15.1086L11.9138 15.0514V14.9943L11.941 14.7686L11.6753 14.5398L11.5604 14.4946L11.4819 14.4645L11.2796 14.3863L10.8448 14.1095L10.5427 13.9229L10.428 13.8656L10.0414 13.7693L9.46761 13.2066L9.25621 13.1794L9.18071 13.3871L9.04481 13.6249L8.91797 14.3833L8.97837 14.7385L9.15353 15.512L9.25923 15.8851L9.12635 16.4871L9.30151 16.9085L9.51895 17.1101L9.54311 17.3629L9.62465 17.4352C9.68886 17.4467 9.75238 17.4618 9.81491 17.4803C10.4672 16.8423 11.1387 16.2102 11.8292 15.5842Z" fill="black" fill-opacity="0.75"/>
<path d="M9.25128 9.51681V9.88399L9.1184 10.185L14.4366 13.3301C20.9447 7.99992 29.0412 3.39807 38.5301 1.25516C33.1941 -0.344402 27.5142 -0.416552 22.139 1.04695C16.7637 2.51044 11.9097 5.45062 8.13086 9.53186L9.25128 9.51681Z" fill="black" fill-opacity="0.75"/>
<path d="M0 32.7601C0.141597 34.6686 0.46108 36.5598 0.954318 38.4093C3.09851 35.7006 7.19966 31.5382 12.8712 27.2584L12.9044 26.6383L12.8591 26.5209L12.8379 26.3434L12.6296 25.7625L12.5783 25.6692L12.3186 25.308L12.1525 25.1757L11.947 25.1155L11.7417 24.8144L11.2163 24.378L11.1951 24.3269L10.9837 24.2126L10.9565 24.1553L10.727 23.9868L10.6937 23.9537H10.6696L9.94483 23.5474L9.62471 23.4751C6.45976 26.2381 3.28273 29.332 0 32.7601Z" fill="black" fill-opacity="0.75"/>
<path d="M16.2481 23.6443L16.1636 23.5059L16.1273 23.4758L15.8737 23.1748L15.8072 22.7595L15.7166 22.4585L15.3724 22.1816L15.1519 21.8475L14.9435 21.8746L14.4966 21.2245L14.3546 20.9507L14.3727 20.8905L13.9499 20.6767L13.8473 20.4029V20.3698L13.811 20.3186L13.6328 20.123C13.1225 20.5293 12.0957 21.3871 12.0957 21.3871L12.1228 21.8325L12.3826 22.2448L12.7963 22.4886L12.8507 22.922L13.0379 23.1929L13.0862 23.2892L13.2886 23.7045L13.509 23.8731L14.0858 24.3275L14.0556 24.6797L14.2761 24.8271L14.1915 25.0379L14.3154 25.1943V25.4321L14.4211 25.7331L14.3395 26.0341L14.3697 26.1635H14.3516C15.2032 25.5475 16.0871 24.9345 17.0031 24.3246L16.8642 24.0235L16.2481 23.6443Z" fill="black" fill-opacity="0.75"/>
<path d="M47.2936 5.55908C38.1308 6.87131 30.4843 9.49277 23.4355 13.4807L23.4959 13.589V13.7605L23.662 13.9562L24.2389 14.3926L24.6284 15.0908L25 15.6055L25.302 15.6838L25.8335 16.2526L25.9845 16.5535L26.208 17.6611L26.3137 18.2119L26.5704 18.4346L26.8271 18.6091L26.8754 18.6513C34.5311 14.9012 43.4853 12.0029 53.3638 11.3257C51.6177 9.13295 49.5748 7.19224 47.2936 5.55908Z" fill="black" fill-opacity="0.75"/>
<path d="M22.0955 30.9998L21.869 30.6988L21.7663 30.6175L21.3978 30.2775L20.4526 29.5461L20.1506 29.197L19.9302 28.7576L19.7368 28.4054L19.453 27.9119C18.3507 28.5137 17.2786 29.0976 16.2307 29.6996L16.2669 29.6815L16.3122 29.7598L16.5568 29.9614L16.6354 30.2203L16.6564 30.2413L16.8468 30.1811L16.9404 30.3286L16.8619 30.5212L17.0884 30.7921V31.06L17.4477 31.2526L17.5655 31.6288L17.5142 32.0532L17.339 32.303L17.1004 32.4143L17.0037 32.5378L16.9313 32.7484L16.6474 33.1577H16.3907L16.2518 32.7123L16.2307 32.5858L16.2005 32.5317L16.0675 31.7643L15.841 31.2797L15.2643 30.8824L14.9291 30.47C9.29977 33.8229 4.61878 37.2991 1.46289 40.1162C1.81574 41.1765 2.22504 42.2173 2.68901 43.2342C8.64087 38.4076 15.2501 34.4474 22.3189 31.4723L22.0955 30.9998Z" fill="black" fill-opacity="0.75"/>
<path d="M57.5375 18.2536C49.8003 17.6065 41.7943 19.0332 34.2383 21.5313L34.5222 21.8683L34.6852 22.3619L34.7305 22.4732H34.8755L35.2198 22.6689L35.2983 23.0933L35.3708 23.4634L35.6728 24.3664L35.9325 24.7636L36.0744 25.0887L36.2405 25.2693L36.9563 25.486L37.213 25.7208L37.6962 25.8441L38.0314 26.0518H38.9585L39.1579 26.2204C45.8304 24.8255 52.6385 24.1785 59.4552 24.2912C59.0282 22.2177 58.3855 20.1943 57.5375 18.2536Z" fill="black" fill-opacity="0.75"/>
<path d="M25.6169 40.5739L25.3512 40.2157V39.8726L25.2273 39.668L25.4418 39.4302L25.3692 39.054L25.0461 38.6778L25.1096 38.3768L25.0431 38.2113L24.8739 37.817L24.8468 37.6575V37.0194L25.0039 36.3663L25.1337 36.1436V36.0804L24.6868 35.8547L24.6203 35.626C17.5445 37.8862 10.3387 41.0434 3.74609 45.2991C4.34644 46.3904 5.01203 47.4446 5.73928 48.4563C12.1166 45.2145 18.8041 42.6182 25.7014 40.7063L25.6169 40.5739Z" fill="black" fill-opacity="0.75"/>
<path d="M38.9219 32.1467L39.0004 32.9684L38.8856 33.3114L38.8223 33.6456V33.799L38.9582 34.3107L39.0004 34.4913L39.2662 34.9337L39.2843 35.0059L39.4353 35.2888L39.8218 36.3844L40.0907 37.3324L40.1631 37.6333L40.2839 37.7688C44.3717 37.2417 48.4869 36.9533 52.6085 36.905V36.8118L52.7625 36.4505L52.7474 36.3091V36.1978L53.1974 35.8065L53.7651 35.5055L55.4986 35.0541L55.7463 34.9728L55.9275 34.7802L56.2295 34.6598L56.61 34.6297L56.767 34.5184L57.069 34.4883L57.6338 34.5755L57.7395 34.6056L58.0264 34.6598L58.4945 34.7139L58.6757 34.7531L58.7995 34.8555L58.878 34.9578L58.9173 35.4182L58.8116 36.0202V36.2218L58.5096 36.7967L58.3525 37.0194L59.3038 37.0555C59.7054 35.2227 59.9369 33.3567 59.9954 31.4816C55.3567 30.5907 47.7161 30.6689 38.9219 32.1467Z" fill="black" fill-opacity="0.75"/>
<path d="M52.1557 44.1196V44.5982L51.5517 44.6192L51.4884 44.7004H51.6423L52.2222 45.1158L52.5242 45.188L52.6813 45.3054L52.9258 45.7418L53.0164 45.814L53.3184 45.9043L53.3698 46.0097V46.425L53.4241 46.5545L53.3879 46.7531L53.4151 46.9156H51.0474L50.1414 48.586V48.7064L50.4434 48.8449V49.0555L50.3076 49.3083L50.3529 49.4678L50.4284 49.6153L50.4072 49.8741L50.2472 50.1239L50.1927 50.2865L50.1264 50.3497L49.9602 50.3286L49.7428 50.0668V50.0005L48.9696 49.2331L48.858 49.0705L48.5831 48.9051L48.1391 48.4535L47.4325 47.9209L46.5265 47.4153L45.7382 47.1744L45.5209 47.1142L45.1283 47.1293L44.3641 47.2135L44.1407 47.3008L43.8387 47.6409L42.8331 48.0382L42.377 48.3392L41.8908 48.3662L41.8063 48.4836L41.5828 48.4506L41.0482 48.3031L40.4261 47.972L39.2181 47.8576L39.0218 47.7223V47.7042L38.4571 47.4031L38.4752 47.325L37.8138 47.1744L37.7262 47.1563L37.3125 46.6809H37.2279L37.1645 46.747L36.7931 46.5936L35.5307 46.3678L35.1864 46.1843L35.1411 46.0368H35.0747L34.972 45.9645L33.6644 45.486L33.5798 45.4559H33.5194C33.1807 45.4053 32.8582 45.2775 32.5772 45.0827C24.1464 46.2694 15.8469 48.2465 7.78906 50.9877C10.5815 54.0969 14.0003 56.5844 17.8224 58.2879C21.6445 59.9915 25.784 60.8729 29.9709 60.8746C41.5798 60.8746 51.6454 54.2141 56.6586 44.4657C55.3087 44.3152 53.7926 44.2009 52.1557 44.1196Z" fill="black" fill-opacity="0.75"/>
</g>
</svg>
